<mxfile host="app.diagrams.net" agent="Mozilla/5.0 (Windows NT 10.0; Win64; x64) AppleWebKit/537.36 (KHTML, like Gecko) Chrome/132.0.0.0 Safari/537.36" version="26.0.10" pages="3">
  <diagram name="Page-1" id="qg-eUf8zMtXOOASeSMDD">
    <mxGraphModel dx="796" dy="457" grid="1" gridSize="10" guides="1" tooltips="1" connect="1" arrows="1" fold="1" page="1" pageScale="1" pageWidth="827" pageHeight="1169" math="0" shadow="0">
      <root>
        <mxCell id="0" />
        <mxCell id="1" parent="0" />
        <mxCell id="0eWZrAWlrOWclMwMzlRw-1" value="&lt;font style=&quot;font-size: 50px;&quot;&gt;Room&lt;/font&gt;" style="rounded=0;whiteSpace=wrap;html=1;" parent="1" vertex="1">
          <mxGeometry x="340" y="85" width="1000" height="1000" as="geometry" />
        </mxCell>
        <mxCell id="0eWZrAWlrOWclMwMzlRw-2" value="&lt;font style=&quot;font-size: 46px;&quot;&gt;Bounds.Max, Bmax(5,5)&lt;/font&gt;" style="text;html=1;align=center;verticalAlign=middle;whiteSpace=wrap;rounded=0;" parent="1" vertex="1">
          <mxGeometry x="1090" y="30" width="500" height="30" as="geometry" />
        </mxCell>
        <mxCell id="0eWZrAWlrOWclMwMzlRw-6" value="&lt;font style=&quot;font-size: 46px;&quot;&gt;Bounds.Max, Bmin(-5,-5)&lt;/font&gt;" style="text;html=1;align=center;verticalAlign=middle;whiteSpace=wrap;rounded=0;" parent="1" vertex="1">
          <mxGeometry x="40" y="1110" width="530" height="30" as="geometry" />
        </mxCell>
      </root>
    </mxGraphModel>
  </diagram>
  <diagram id="YP_V8F17hPN7CO_E5pXH" name="Page-2">
    <mxGraphModel dx="3176" dy="1816" grid="1" gridSize="10" guides="1" tooltips="1" connect="1" arrows="1" fold="1" page="1" pageScale="1" pageWidth="827" pageHeight="1169" math="0" shadow="0">
      <root>
        <mxCell id="0" />
        <mxCell id="1" parent="0" />
        <mxCell id="lLXM_vn9EVJm0HNlFy6O-1" value="" style="rounded=0;whiteSpace=wrap;html=1;strokeWidth=6;fillColor=#1ba1e2;fontColor=#ffffff;strokeColor=#006EAF;" vertex="1" parent="1">
          <mxGeometry x="150" y="150" width="2120" height="910" as="geometry" />
        </mxCell>
        <mxCell id="lLXM_vn9EVJm0HNlFy6O-2" value="&lt;font style=&quot;font-size: 70px;&quot;&gt;emgaxo python library&lt;/font&gt;" style="text;html=1;align=center;verticalAlign=middle;whiteSpace=wrap;rounded=0;strokeWidth=3;fontSize=35;" vertex="1" parent="1">
          <mxGeometry x="840" y="150" width="801" height="120" as="geometry" />
        </mxCell>
        <mxCell id="lLXM_vn9EVJm0HNlFy6O-8" style="edgeStyle=orthogonalEdgeStyle;rounded=0;orthogonalLoop=1;jettySize=auto;html=1;entryX=0;entryY=0.5;entryDx=0;entryDy=0;strokeWidth=6;" edge="1" parent="1" source="lLXM_vn9EVJm0HNlFy6O-3">
          <mxGeometry relative="1" as="geometry">
            <mxPoint x="820" y="425" as="targetPoint" />
          </mxGeometry>
        </mxCell>
        <mxCell id="lLXM_vn9EVJm0HNlFy6O-3" value="&lt;font style=&quot;font-size: 60px;&quot;&gt;Model Modifier&lt;/font&gt;" style="rounded=0;whiteSpace=wrap;html=1;strokeWidth=6;fillColor=#60a917;fontColor=#ffffff;strokeColor=#2D7600;" vertex="1" parent="1">
          <mxGeometry x="210" y="340" width="450" height="170" as="geometry" />
        </mxCell>
        <mxCell id="lLXM_vn9EVJm0HNlFy6O-10" style="edgeStyle=orthogonalEdgeStyle;rounded=0;orthogonalLoop=1;jettySize=auto;html=1;entryX=0;entryY=0.5;entryDx=0;entryDy=0;strokeWidth=6;" edge="1" parent="1" source="lLXM_vn9EVJm0HNlFy6O-4">
          <mxGeometry relative="1" as="geometry">
            <mxPoint x="827" y="671" as="targetPoint" />
          </mxGeometry>
        </mxCell>
        <mxCell id="lLXM_vn9EVJm0HNlFy6O-4" value="&lt;font style=&quot;font-size: 60px;&quot;&gt;Accuracy Tester&lt;/font&gt;" style="rounded=0;whiteSpace=wrap;html=1;strokeWidth=6;fillColor=#60a917;fontColor=#ffffff;strokeColor=#2D7600;" vertex="1" parent="1">
          <mxGeometry x="210" y="585" width="450" height="170" as="geometry" />
        </mxCell>
        <mxCell id="lLXM_vn9EVJm0HNlFy6O-12" style="edgeStyle=orthogonalEdgeStyle;rounded=0;orthogonalLoop=1;jettySize=auto;html=1;exitX=1;exitY=0.5;exitDx=0;exitDy=0;entryX=0;entryY=0.5;entryDx=0;entryDy=0;strokeWidth=6;" edge="1" parent="1" source="lLXM_vn9EVJm0HNlFy6O-5">
          <mxGeometry relative="1" as="geometry">
            <mxPoint x="827" y="925" as="targetPoint" />
          </mxGeometry>
        </mxCell>
        <mxCell id="lLXM_vn9EVJm0HNlFy6O-5" value="&lt;font style=&quot;font-size: 60px;&quot;&gt;Operators&lt;/font&gt;" style="rounded=0;whiteSpace=wrap;html=1;strokeWidth=6;fillColor=#60a917;fontColor=#ffffff;strokeColor=#2D7600;" vertex="1" parent="1">
          <mxGeometry x="210" y="840" width="450" height="170" as="geometry" />
        </mxCell>
        <mxCell id="lLXM_vn9EVJm0HNlFy6O-13" value="&lt;div style=&quot;text-align: justify;&quot;&gt;&lt;span style=&quot;color: rgb(255, 255, 255); background-color: initial;&quot;&gt;Modifies ONNX with Accurate/Approximate Operatos from the Operator&amp;nbsp;&lt;/span&gt;&lt;/div&gt;" style="text;html=1;align=center;verticalAlign=middle;whiteSpace=wrap;rounded=0;fontSize=60;" vertex="1" parent="1">
          <mxGeometry x="850" y="340" width="1260" height="170" as="geometry" />
        </mxCell>
        <mxCell id="lLXM_vn9EVJm0HNlFy6O-14" value="&lt;div style=&quot;text-align: justify;&quot;&gt;&lt;span style=&quot;color: rgb(255, 255, 255); text-align: center;&quot;&gt;&lt;font&gt;Test the Accuracy of Original/Modified Model and show the results&lt;/font&gt;&lt;/span&gt;&lt;/div&gt;" style="text;html=1;align=center;verticalAlign=middle;whiteSpace=wrap;rounded=0;fontSize=60;" vertex="1" parent="1">
          <mxGeometry x="850" y="585" width="1260" height="170" as="geometry" />
        </mxCell>
        <mxCell id="lLXM_vn9EVJm0HNlFy6O-15" value="&lt;div style=&quot;text-align: justify;&quot;&gt;&lt;span style=&quot;color: rgb(255, 255, 255); text-align: center;&quot;&gt;&lt;font&gt;Contains Accurate and Approximate Python Operators&lt;/font&gt;&lt;/span&gt;&lt;/div&gt;" style="text;html=1;align=center;verticalAlign=middle;whiteSpace=wrap;rounded=0;fontSize=60;" vertex="1" parent="1">
          <mxGeometry x="860" y="830" width="1260" height="170" as="geometry" />
        </mxCell>
      </root>
    </mxGraphModel>
  </diagram>
  <diagram id="TNleYpmeSulcsr2JhAcV" name="Page-3">
    <mxGraphModel dx="884" dy="508" grid="0" gridSize="10" guides="1" tooltips="1" connect="1" arrows="1" fold="1" page="1" pageScale="1" pageWidth="827" pageHeight="1169" math="0" shadow="0">
      <root>
        <mxCell id="0" />
        <mxCell id="1" parent="0" />
        <mxCell id="ZzlUpiT-o3AJP0GxscNg-2" value="&lt;font style=&quot;font-size: 20px;&quot;&gt;Idle&lt;/font&gt;" style="ellipse;whiteSpace=wrap;html=1;aspect=fixed;fillColor=#d5e8d4;strokeColor=#82b366;" vertex="1" parent="1">
          <mxGeometry x="229" y="150" width="80" height="80" as="geometry" />
        </mxCell>
        <mxCell id="ZzlUpiT-o3AJP0GxscNg-6" style="edgeStyle=orthogonalEdgeStyle;rounded=0;orthogonalLoop=1;jettySize=auto;html=1;exitX=0.5;exitY=0;exitDx=0;exitDy=0;entryX=0.5;entryY=0;entryDx=0;entryDy=0;curved=1;" edge="1" parent="1" source="ZzlUpiT-o3AJP0GxscNg-3" target="ZzlUpiT-o3AJP0GxscNg-4">
          <mxGeometry relative="1" as="geometry">
            <Array as="points">
              <mxPoint x="414" y="270" />
              <mxPoint x="560" y="270" />
            </Array>
          </mxGeometry>
        </mxCell>
        <mxCell id="ZzlUpiT-o3AJP0GxscNg-14" style="edgeStyle=orthogonalEdgeStyle;rounded=0;orthogonalLoop=1;jettySize=auto;html=1;exitX=0;exitY=0;exitDx=0;exitDy=0;entryX=0;entryY=0.5;entryDx=0;entryDy=0;curved=1;" edge="1" parent="1" source="ZzlUpiT-o3AJP0GxscNg-3" target="ZzlUpiT-o3AJP0GxscNg-2">
          <mxGeometry relative="1" as="geometry">
            <Array as="points">
              <mxPoint x="190" y="312" />
              <mxPoint x="190" y="190" />
            </Array>
          </mxGeometry>
        </mxCell>
        <mxCell id="ZzlUpiT-o3AJP0GxscNg-3" value="&lt;font style=&quot;font-size: 20px;&quot;&gt;Patrol&lt;/font&gt;" style="ellipse;whiteSpace=wrap;html=1;aspect=fixed;fillColor=#e1d5e7;strokeColor=#9673a6;" vertex="1" parent="1">
          <mxGeometry x="373.5" y="300" width="80" height="80" as="geometry" />
        </mxCell>
        <mxCell id="ZzlUpiT-o3AJP0GxscNg-11" style="edgeStyle=orthogonalEdgeStyle;rounded=0;orthogonalLoop=1;jettySize=auto;html=1;entryX=0.5;entryY=1;entryDx=0;entryDy=0;curved=1;" edge="1" parent="1" source="ZzlUpiT-o3AJP0GxscNg-4" target="ZzlUpiT-o3AJP0GxscNg-3">
          <mxGeometry relative="1" as="geometry">
            <Array as="points">
              <mxPoint x="560" y="420" />
              <mxPoint x="414" y="420" />
              <mxPoint x="414" y="380" />
            </Array>
          </mxGeometry>
        </mxCell>
        <mxCell id="ZzlUpiT-o3AJP0GxscNg-4" value="&lt;font style=&quot;font-size: 20px;&quot;&gt;Chase&lt;/font&gt;" style="ellipse;whiteSpace=wrap;html=1;aspect=fixed;fillColor=#f8cecc;strokeColor=#b85450;" vertex="1" parent="1">
          <mxGeometry x="520" y="300" width="80" height="80" as="geometry" />
        </mxCell>
        <mxCell id="ZzlUpiT-o3AJP0GxscNg-7" value="" style="endArrow=classic;html=1;rounded=0;entryX=0;entryY=0.5;entryDx=0;entryDy=0;exitX=1;exitY=0.5;exitDx=0;exitDy=0;" edge="1" parent="1" source="ZzlUpiT-o3AJP0GxscNg-8" target="ZzlUpiT-o3AJP0GxscNg-3">
          <mxGeometry width="50" height="50" relative="1" as="geometry">
            <mxPoint x="330" y="380" as="sourcePoint" />
            <mxPoint x="430" y="400" as="targetPoint" />
          </mxGeometry>
        </mxCell>
        <mxCell id="ZzlUpiT-o3AJP0GxscNg-8" value="&lt;font style=&quot;font-size: 20px;&quot;&gt;Entry&lt;/font&gt;" style="text;html=1;align=center;verticalAlign=middle;whiteSpace=wrap;rounded=0;fillColor=#dae8fc;strokeColor=#6c8ebf;" vertex="1" parent="1">
          <mxGeometry x="140" y="325" width="60" height="30" as="geometry" />
        </mxCell>
        <mxCell id="ZzlUpiT-o3AJP0GxscNg-10" value="&lt;font style=&quot;font-size: 16px;&quot;&gt;PlayerInSight = true&lt;/font&gt;" style="text;html=1;align=center;verticalAlign=middle;whiteSpace=wrap;rounded=0;fillColor=none;strokeColor=none;" vertex="1" parent="1">
          <mxGeometry x="402" y="247" width="160" height="21" as="geometry" />
        </mxCell>
        <mxCell id="ZzlUpiT-o3AJP0GxscNg-12" value="&lt;font style=&quot;font-size: 16px;&quot;&gt;PlayerInSight = false&lt;/font&gt;" style="text;html=1;align=center;verticalAlign=middle;whiteSpace=wrap;rounded=0;strokeColor=none;" vertex="1" parent="1">
          <mxGeometry x="413" y="421" width="160" height="21" as="geometry" />
        </mxCell>
        <mxCell id="ZzlUpiT-o3AJP0GxscNg-13" value="&lt;font style=&quot;font-size: 20px;&quot;&gt;Die&lt;/font&gt;" style="ellipse;whiteSpace=wrap;html=1;aspect=fixed;fillColor=#ffe6cc;strokeColor=#d79b00;" vertex="1" parent="1">
          <mxGeometry x="450" y="130" width="80" height="80" as="geometry" />
        </mxCell>
        <mxCell id="ZzlUpiT-o3AJP0GxscNg-16" value="&lt;font style=&quot;font-size: 16px;&quot;&gt;Waypoints = 0&lt;/font&gt;" style="text;html=1;align=center;verticalAlign=middle;whiteSpace=wrap;rounded=0;rotation=25;" vertex="1" parent="1">
          <mxGeometry x="180" y="268" width="125" height="21" as="geometry" />
        </mxCell>
        <mxCell id="ZzlUpiT-o3AJP0GxscNg-18" style="edgeStyle=orthogonalEdgeStyle;rounded=0;orthogonalLoop=1;jettySize=auto;html=1;exitX=0;exitY=0.5;exitDx=0;exitDy=0;" edge="1" parent="1" source="ZzlUpiT-o3AJP0GxscNg-17" target="ZzlUpiT-o3AJP0GxscNg-13">
          <mxGeometry relative="1" as="geometry" />
        </mxCell>
        <mxCell id="ZzlUpiT-o3AJP0GxscNg-17" value="&lt;font style=&quot;font-size: 20px;&quot;&gt;Any State&lt;/font&gt;" style="text;html=1;align=center;verticalAlign=middle;whiteSpace=wrap;rounded=0;fillColor=#d5e8d4;strokeColor=#82b366;" vertex="1" parent="1">
          <mxGeometry x="600" y="155" width="94" height="30" as="geometry" />
        </mxCell>
        <mxCell id="ZzlUpiT-o3AJP0GxscNg-19" value="&lt;font style=&quot;font-size: 16px;&quot;&gt;Die()&lt;/font&gt;" style="text;html=1;align=center;verticalAlign=middle;whiteSpace=wrap;rounded=0;fillColor=none;strokeColor=none;" vertex="1" parent="1">
          <mxGeometry x="483" y="148" width="160" height="21" as="geometry" />
        </mxCell>
        <mxCell id="ZzlUpiT-o3AJP0GxscNg-20" value="&lt;font style=&quot;font-size: 30px;&quot;&gt;Enemy AI FSM&lt;/font&gt;" style="text;html=1;align=center;verticalAlign=middle;whiteSpace=wrap;rounded=0;strokeColor=none;" vertex="1" parent="1">
          <mxGeometry x="100" y="40" width="570" height="50" as="geometry" />
        </mxCell>
      </root>
    </mxGraphModel>
  </diagram>
</mxfile>
